<svg viewBox="0 0 65 64" fill="none" xmlns="http://www.w3.org/2000/svg">
<g clip-path="url(#clip0_1629_55790)">
<rect x="0.5" width="64" height="64" rx="13.4737" fill="url(#paint0_linear_1629_55790)"/>
<path d="M31.2747 12.9859L4.0829 31.1138C3.42777 31.5507 3.42777 32.5133 4.0829 32.95L31.2747 51.0778C32.0159 51.5721 32.9816 51.5721 33.7229 51.0778L60.9147 32.95C61.5698 32.5132 61.5698 31.5505 60.9147 31.1138L33.7229 12.9859C32.9816 12.4917 32.0159 12.4917 31.2747 12.9859Z" fill="#FFF046"/>
<path d="M32.4994 45.2406C39.8124 45.2406 45.7408 39.3122 45.7408 31.9992C45.7408 24.6862 39.8124 18.7578 32.4994 18.7578C25.1864 18.7578 19.2581 24.6862 19.2581 31.9992C19.2581 39.3122 25.1864 45.2406 32.4994 45.2406Z" fill="#005ED8"/>
<path d="M21.1885 25.1396C20.7547 25.8532 20.3881 26.6097 20.0938 27.4035C26.2444 26.9853 36.1145 28.0808 44.7816 36.9298C45.0906 36.161 45.3321 35.3586 45.4931 34.5262C37.011 26.3916 27.5914 24.9308 21.1885 25.1396Z" fill="white"/>
</g>
<defs>
<linearGradient id="paint0_linear_1629_55790" x1="32.5" y1="0" x2="32.5" y2="64" gradientUnits="userSpaceOnUse">
<stop stop-color="#58FA72"/>
<stop offset="1" stop-color="#08AE20"/>
</linearGradient>
<clipPath id="clip0_1629_55790">
<rect x="0.5" width="64" height="64" rx="13.4737" fill="white"/>
</clipPath>
</defs>
</svg>
