<svg width="132" height="132" viewBox="0 0 132 132" fill="none" xmlns="http://www.w3.org/2000/svg">
<g clip-path="url(#clip0_1716_101071)">
<rect width="132" height="132" rx="27.7895" fill="url(#paint0_linear_1716_101071)"/>
<path d="M63.4733 26.7841L7.39035 64.1728C6.03915 65.0739 6.03915 67.0593 7.39035 67.9601L63.4733 105.349C65.0022 106.368 66.994 106.368 68.5229 105.349L124.606 67.9601C125.957 67.059 125.957 65.0736 124.606 64.1728L68.5229 26.7841C66.994 25.7647 65.0022 25.7647 63.4733 26.7841Z" fill="#FFF046"/>
<path d="M65.9993 93.3082C81.0824 93.3082 93.3096 81.0809 93.3096 65.9978C93.3096 50.9148 81.0824 38.6875 65.9993 38.6875C50.9162 38.6875 38.689 50.9148 38.689 65.9978C38.689 81.0809 50.9162 93.3082 65.9993 93.3082Z" fill="#005ED8"/>
<path d="M42.67 51.8507C41.7754 53.3225 41.0193 54.8828 40.4121 56.5199C53.0978 55.6575 73.4549 57.917 91.3309 76.168C91.9682 74.5822 92.4663 72.9273 92.7983 71.2106C75.3039 54.4329 55.876 51.4201 42.67 51.8507Z" fill="white"/>
</g>
<defs>
<linearGradient id="paint0_linear_1716_101071" x1="66" y1="0" x2="66" y2="132" gradientUnits="userSpaceOnUse">
<stop stop-color="#58FA72"/>
<stop offset="1" stop-color="#08AE20"/>
</linearGradient>
<clipPath id="clip0_1716_101071">
<rect width="132" height="132" rx="27.7895" fill="white"/>
</clipPath>
</defs>
</svg>
