<svg width="44" height="44" viewBox="0 0 44 44" fill="none" xmlns="http://www.w3.org/2000/svg">
<rect width="44" height="44" rx="22" fill="black"/>
<path fill-rule="evenodd" clip-rule="evenodd" d="M26.7126 31.9972C25.2702 31.9441 21.1823 31.3792 16.901 27.0999C12.6208 22.8195 12.0568 18.7334 12.0027 17.2903C11.9226 15.091 13.6075 12.9549 15.5537 12.1206C15.7881 12.0194 16.0448 11.9809 16.2985 12.0088C16.5523 12.0367 16.7944 12.1301 17.0012 12.2799C18.6039 13.4476 19.7098 15.2142 20.6594 16.6033C20.8683 16.9085 20.9577 17.2798 20.9104 17.6466C20.8631 18.0134 20.6825 18.35 20.4029 18.5922L18.4486 20.0434C18.3542 20.1116 18.2878 20.2117 18.2616 20.3251C18.2354 20.4386 18.2514 20.5577 18.3064 20.6603C18.7492 21.4645 19.5365 22.6623 20.438 23.5636C21.3395 24.465 22.5947 25.3042 23.4551 25.7969C23.563 25.8575 23.69 25.8744 23.81 25.8442C23.9299 25.8141 24.0338 25.7391 24.1002 25.6347L25.3723 23.6988C25.6062 23.3882 25.9513 23.1801 26.3352 23.1181C26.7191 23.0562 27.112 23.1451 27.4318 23.3663C28.8412 24.3418 30.486 25.4284 31.69 26.9697C31.8519 27.1779 31.9549 27.4258 31.9882 27.6874C32.0215 27.949 31.9839 28.2148 31.8793 28.4569C31.0409 30.4128 28.9193 32.0783 26.7126 31.9972Z" fill="white"/>
</svg>
