<svg width="24" height="24" viewBox="0 0 24 24" fill="none" xmlns="http://www.w3.org/2000/svg">
<path d="M6.5 12C8.59683 12 10.3589 13.4341 10.8584 15.375H22.125V17.375H10.9141C10.5068 19.4414 8.68582 21 6.5 21C4.01472 21 2 18.9853 2 16.5C2 14.0147 4.01472 12 6.5 12ZM6.5 14C5.11929 14 4 15.1193 4 16.5C4 17.8807 5.11929 19 6.5 19C7.88071 19 9 17.8807 9 16.5C9 15.1193 7.88071 14 6.5 14ZM17.5 3C19.9853 3 22 5.01472 22 7.5C22 9.98528 19.9853 12 17.5 12C15.3142 12 13.4932 10.4414 13.0859 8.375H1.875V6.375H13.1416C13.6411 4.4341 15.4032 3 17.5 3ZM17.5 5C16.1193 5 15 6.11929 15 7.5C15 8.88071 16.1193 10 17.5 10C18.8807 10 20 8.88071 20 7.5C20 6.11929 18.8807 5 17.5 5Z" fill="black"/>
</svg>
