<svg width="56" height="56" viewBox="0 0 56 56" fill="none" xmlns="http://www.w3.org/2000/svg">
<g filter="url(#filter0_d_2692_10279)">
<circle cx="28" cy="26" r="19" fill="white" stroke="black" stroke-width="2"/>
<path fill-rule="evenodd" clip-rule="evenodd" d="M16.5062 18.1999C17.3276 17.4078 18.5701 18.2426 18.7595 18.8207C19.1246 18.4925 19.9305 17.7632 20.2337 17.472C20.537 17.1808 22.0028 14.9101 22.6978 13.8111L23.119 13.0189C23.3998 13.0046 24.0035 12.9847 24.172 13.0189C24.3405 13.0532 23.8631 13.5613 23.6034 13.8111L23.2664 14.0251V14.5604C22.775 15.5238 21.708 17.5619 21.371 18.0072C21.034 18.4525 20.332 19.463 20.0231 19.9126C20.2337 20.0125 20.7139 20.2123 20.9498 20.2123C21.0579 20.2123 21.2707 20.4052 21.552 20.66C22.0379 21.1001 22.728 21.7252 23.4349 21.8608C24.3279 22.0321 25.0144 22.4174 25.2461 22.5887L32.9542 21.6467C32.9261 21.4541 32.8868 21.0002 32.9542 20.7262C33.0153 20.4778 33.2868 20.7923 33.5438 21.09L33.5439 21.0901C33.6413 21.2029 33.7366 21.3133 33.8177 21.3898C33.9247 21.4909 34.0679 21.592 34.2038 21.6879C34.4422 21.8562 34.6582 22.0087 34.618 22.1177C34.5674 22.2547 33.7826 22.3604 33.3965 22.396L33.5228 22.8884L26.8046 24.8152C26.622 25.3076 26.198 26.3395 25.9622 26.5279C25.6673 26.7634 23.5402 29.7821 23.4349 30.0604C23.3296 30.3387 22.9716 31.3021 22.9084 31.8801C22.8452 32.4582 22.3608 33.443 22.2345 33.4216C22.1081 33.4002 21.7501 32.5866 21.6658 32.3297C21.5816 32.0728 21.7922 31.0024 21.9607 30.3601C22.0955 29.8463 22.5083 29.518 22.6978 29.4181L21.9607 28.7116L24.3194 25.222L23.2664 25.5431C22.7302 25.7187 21.9047 25.9821 21.1979 26.1925C21.0965 26.5194 21.0017 26.8504 20.9065 27.1843L20.8845 27.2614C20.6983 27.915 20.5088 28.5803 20.2669 29.2293L20.2588 29.2508C20.0749 29.7446 19.878 30.2731 19.2551 30.5378C18.893 30.6918 18.5008 30.7908 18.095 30.7908C17.9569 30.7908 17.845 30.6788 17.845 30.5408C17.845 30.4027 17.9569 30.2908 18.095 30.2908C18.4196 30.2908 18.7452 30.2116 19.0598 30.0779C19.4684 29.9041 19.6024 29.5793 19.7981 29.0544C20.0322 28.4265 20.2161 27.7808 20.4031 27.1245L20.4251 27.0476L20.4514 26.9554C20.4157 27.0059 20.3798 27.0564 20.3437 27.1067C20.1836 27.3295 19.995 27.4948 19.8189 27.6491L19.8189 27.6491L19.8183 27.6497C19.628 27.8164 19.3806 28.0031 19.1122 28.1497C18.8476 28.2941 18.5401 28.4114 18.2343 28.4114C18.0962 28.4114 17.9843 28.2995 17.9843 28.1614C17.9843 28.0233 18.0962 27.9114 18.2343 27.9114C18.4202 27.9114 18.6415 27.8366 18.8729 27.7102C19.1005 27.5859 19.3173 27.4234 19.4882 27.2737C19.6692 27.1151 19.8154 26.9845 19.9374 26.8147C20.018 26.7025 20.0975 26.5894 20.1761 26.4756C20.0115 26.5146 19.897 26.5346 19.8547 26.5279C19.5809 26.4851 18.0224 24.9009 17.7065 23.9375C17.3906 22.9741 17.201 21.6896 17.18 21.2186C17.1645 20.8719 16.6928 20.5601 16.4028 20.3684C16.2987 20.2996 16.218 20.2463 16.1902 20.2123C16.0849 20.0839 15.6848 18.992 16.5062 18.1999ZM22.2773 25.1561C22.159 25.1961 21.8609 25.2424 21.5214 25.2855C21.5883 25.1331 21.7009 24.9051 21.8229 24.6768C21.8889 24.7447 21.9626 24.8247 22.033 24.901L22.033 24.901L22.033 24.901C22.1311 25.0074 22.2225 25.1066 22.2773 25.1561ZM21.0764 25.0066C21.0473 25.082 21.019 25.1577 20.9914 25.2335L20.9142 25.3554C20.7065 25.3774 20.5134 25.3961 20.3662 25.4094L20.1169 24.5057C20.4324 24.5038 20.9654 24.5014 21.3057 24.5021C21.2149 24.6663 21.1424 24.8356 21.0764 25.0066ZM37.2127 23.6264C37.4845 23.2046 38.0139 22.5501 38.6291 22.6665C39.2442 22.7829 40.2457 23.2628 39.9452 24.3827C39.7049 25.2785 38.8818 25.5994 38.5003 25.6479C38.5862 26.1812 38.7321 27.3757 38.6291 27.8876C38.5549 28.2562 37.9158 29.4017 37.3845 30.354L37.3845 30.3541L37.3844 30.3542C36.9934 31.0551 36.6608 31.6513 36.6547 31.7561C36.6457 31.9126 36.9347 32.2032 37.1626 32.4322L37.1626 32.4322C37.2947 32.565 37.4063 32.6771 37.4273 32.7305C37.4731 32.8469 37.4464 33.1183 37.4273 33.2395C37.1316 33.0698 36.5003 32.7305 36.34 32.7305C36.2747 32.7305 36.2063 32.7707 36.1433 32.8078C36.0775 32.8466 36.0175 32.8818 35.9731 32.864C36.0963 33.1879 36.2617 33.4639 36.4831 33.7116C36.5392 33.7046 36.5959 33.6959 36.6527 33.6856C36.911 33.6384 37.1468 33.5605 37.3069 33.4629L37.3519 33.4404C37.4614 33.4008 37.5877 33.4426 37.6507 33.5459C37.7223 33.6637 37.6845 33.8178 37.5667 33.8897L37.3812 33.9863C37.2606 34.0407 37.1293 34.0855 36.9953 34.1211C37.1177 34.1794 37.2566 34.2261 37.4022 34.2554C37.6858 34.3124 37.9587 34.2963 38.1552 34.2075C38.2809 34.1507 38.4293 34.2069 38.4862 34.3325C38.5431 34.4584 38.487 34.6067 38.3612 34.6636L38.2382 34.7114C37.9434 34.8094 37.6083 34.8068 37.3036 34.7456C36.9547 34.6755 36.6091 34.5209 36.3671 34.3023C36.3406 34.2783 36.3146 34.2541 36.2891 34.2297C36.1485 34.2362 36.0132 34.2332 35.8909 34.2197C35.5033 34.1771 35.1627 34.116 34.8069 33.8213C34.5044 33.5707 34.3463 33.2262 34.2523 32.8887C34.1732 32.6047 34.1335 32.3017 34.0991 32.0392L34.0991 32.0391C34.0931 31.9932 34.0872 31.9484 34.0814 31.9053C34.0469 31.6524 34.0363 31.4003 34.0267 31.1611L34.0252 31.124C34.016 30.8948 34.0073 30.6768 33.9808 30.4609C33.9596 30.289 33.9178 30.1215 33.8643 29.9515C33.5455 30.4146 32.8898 31.0472 32.4487 31.1162C31.8907 31.2035 29.3298 32.1779 29.3441 32.3233C29.3556 32.4396 31.4186 33.797 32.4487 34.4612L32.1195 34.9265C32.3436 35.1108 32.7719 35.4908 32.6917 35.5374C32.6519 35.5605 32.4985 35.7866 32.3203 36.0495C32.051 36.4467 31.7248 36.9277 31.6474 36.919C31.6125 36.915 31.4668 36.9271 31.2741 36.943C30.7543 36.9858 29.8927 37.0569 29.9449 36.919C29.9695 36.8538 30.0859 36.6834 30.2226 36.4831C30.4826 36.1022 30.8161 35.6136 30.7317 35.5374C30.603 35.421 28.2567 34.1848 27.4412 33.8358C26.6258 33.4868 26.2539 32.396 26.5114 31.7561C26.7174 31.2442 29.7733 28.8668 31.2755 27.7422L32.9064 26.2442C32.6585 26.1569 32.2054 25.9155 32.3771 25.6479C32.5917 25.3134 35.1384 23.1319 35.8966 23.1465C36.5031 23.1581 37.0267 23.4713 37.2127 23.6264ZM35.494 33.0103C35.5887 33.266 35.7064 33.4984 35.8512 33.7126C35.5459 33.674 35.3448 33.6174 35.1263 33.4365C34.9339 33.2772 34.814 33.043 34.7337 32.7549C34.666 32.5117 34.6322 32.2531 34.5981 31.9927L34.5981 31.9926C34.5913 31.9407 34.5845 31.8888 34.5775 31.8369C34.5467 31.611 34.5364 31.382 34.5267 31.1406L34.5256 31.1145C34.5173 30.9074 34.5086 30.6903 34.4852 30.4721C34.5555 30.6235 34.6206 30.7792 34.6879 30.9401L34.6879 30.9402C34.7486 31.0853 34.8111 31.2347 34.8807 31.3892C35.0474 31.7586 35.1816 32.1367 35.3195 32.5254L35.3195 32.5254L35.3195 32.5255C35.3762 32.6852 35.4335 32.8468 35.494 33.0103ZM34.3031 29.2376C34.4275 29.3946 34.5366 29.5477 34.6249 29.6841C34.8516 30.0342 35.0141 30.4225 35.1669 30.7879L35.1669 30.788L35.167 30.788L35.167 30.7881C35.224 30.9243 35.2796 31.0574 35.3368 31.1841C35.5123 31.5731 35.657 31.9811 35.7975 32.377L35.7975 32.3771L35.7976 32.3772C35.8314 32.4725 35.865 32.5672 35.8987 32.6608C35.8982 32.6529 35.8978 32.6448 35.8974 32.6364C35.8971 32.6292 35.8968 32.6218 35.8966 32.6142C35.8823 32.1197 35.9108 31.0726 36.1684 30.4618C36.3744 29.9731 36.7024 29.0559 36.8407 28.6584C36.1396 28.7553 34.6832 28.9871 34.4658 29.1383C34.3983 29.1852 34.3458 29.2142 34.3031 29.2376Z" fill="black"/>
</g>
<defs>
<filter id="filter0_d_2692_10279" x="0" y="0" width="56" height="56" filterUnits="userSpaceOnUse" color-interpolation-filters="sRGB">
<feFlood flood-opacity="0" result="BackgroundImageFix"/>
<feColorMatrix in="SourceAlpha" type="matrix" values="0 0 0 0 0 0 0 0 0 0 0 0 0 0 0 0 0 0 127 0" result="hardAlpha"/>
<feOffset dy="2"/>
<feGaussianBlur stdDeviation="4"/>
<feComposite in2="hardAlpha" operator="out"/>
<feColorMatrix type="matrix" values="0 0 0 0 0 0 0 0 0 0 0 0 0 0 0 0 0 0 0.2 0"/>
<feBlend mode="normal" in2="BackgroundImageFix" result="effect1_dropShadow_2692_10279"/>
<feBlend mode="normal" in="SourceGraphic" in2="effect1_dropShadow_2692_10279" result="shape"/>
</filter>
</defs>
</svg>
