<svg width="56" height="56" viewBox="0 0 56 56" fill="none" xmlns="http://www.w3.org/2000/svg">
<g filter="url(#filter0_d_2064_47849)">
<circle cx="28" cy="26" r="19" fill="white" stroke="black" stroke-width="2"/>
<path fill-rule="evenodd" clip-rule="evenodd" d="M16.5062 18.1999C17.3276 17.4078 18.5701 18.2426 18.7595 18.8207C19.1246 18.4925 19.9305 17.7632 20.2337 17.472C20.537 17.1808 22.0028 14.9101 22.6978 13.8111L23.119 13.0189C23.3998 13.0046 24.0035 12.9847 24.172 13.0189C24.3405 13.0532 23.8631 13.5613 23.6034 13.8111L23.2664 14.0251V14.5604C22.775 15.5238 21.708 17.5619 21.371 18.0072C21.034 18.4525 20.332 19.463 20.0231 19.9126C20.2337 20.0125 20.7139 20.2123 20.9498 20.2123C21.0579 20.2123 21.2707 20.4052 21.552 20.66C22.0379 21.1001 22.728 21.7252 23.4349 21.8608C24.3279 22.0321 25.0144 22.4174 25.2461 22.5887L32.9542 21.6467C32.9261 21.4541 32.8868 21.0002 32.9542 20.7262C33.0153 20.4778 33.2868 20.7923 33.5438 21.09L33.5439 21.0901C33.6413 21.2029 33.7366 21.3133 33.8177 21.3898C33.9247 21.4909 34.0679 21.592 34.2038 21.6879C34.4422 21.8562 34.6582 22.0087 34.618 22.1177C34.5674 22.2547 33.7826 22.3604 33.3965 22.396L33.5228 22.8884L26.8046 24.8152C26.622 25.3076 26.198 26.3395 25.9622 26.5279C25.6673 26.7634 23.5402 29.7821 23.4349 30.0604C23.3296 30.3387 22.9716 31.3021 22.9084 31.8801C22.8452 32.4582 22.3608 33.443 22.2345 33.4216C22.1081 33.4002 21.7501 32.5866 21.6658 32.3297C21.5816 32.0728 21.7922 31.0024 21.9607 30.3601C22.0955 29.8463 22.5083 29.518 22.6978 29.4181L21.9607 28.7116L24.3194 25.222L23.2664 25.5431C22.7302 25.7187 21.9047 25.9821 21.1979 26.1925C21.0965 26.5194 21.0017 26.8504 20.9065 27.1843L20.8845 27.2614C20.6983 27.915 20.5088 28.5803 20.2669 29.2292L20.2588 29.2508C20.0749 29.7446 19.878 30.2731 19.2551 30.5378C18.893 30.6918 18.5008 30.7908 18.095 30.7908C17.9569 30.7908 17.845 30.6788 17.845 30.5408C17.845 30.4027 17.9569 30.2908 18.095 30.2908C18.4196 30.2908 18.7452 30.2116 19.0598 30.0779C19.4684 29.9041 19.6024 29.5793 19.7981 29.0544C20.0322 28.4265 20.2161 27.7808 20.4031 27.1245L20.4251 27.0476L20.4514 26.9554C20.4157 27.0059 20.3798 27.0564 20.3437 27.1067C20.1836 27.3295 19.995 27.4948 19.8189 27.6491L19.8183 27.6497C19.628 27.8164 19.3806 28.0031 19.1122 28.1497C18.8476 28.2941 18.5401 28.4114 18.2343 28.4114C18.0962 28.4114 17.9843 28.2994 17.9843 28.1614C17.9843 28.0233 18.0962 27.9114 18.2343 27.9114C18.4202 27.9114 18.6415 27.8366 18.8729 27.7102C19.1005 27.5859 19.3173 27.4234 19.4882 27.2737C19.6691 27.1151 19.8154 26.9845 19.9374 26.8147C20.018 26.7025 20.0975 26.5894 20.1761 26.4756C20.0115 26.5146 19.897 26.5346 19.8547 26.5279C19.5809 26.4851 18.0224 24.9009 17.7065 23.9375C17.3906 22.9741 17.201 21.6896 17.18 21.2186C17.1645 20.8719 16.6928 20.5601 16.4028 20.3684C16.2987 20.2996 16.218 20.2463 16.1902 20.2123C16.0849 20.0839 15.6848 18.992 16.5062 18.1999ZM22.2773 25.1561C22.159 25.1961 21.8609 25.2424 21.5214 25.2855C21.5883 25.1331 21.7009 24.9051 21.8229 24.6768C21.8888 24.7447 21.9626 24.8246 22.0329 24.9009L22.033 24.901L22.033 24.901L22.033 24.901C22.1311 25.0074 22.2225 25.1066 22.2773 25.1561ZM21.0764 25.0066C21.0473 25.082 21.019 25.1577 20.9914 25.2335L20.9142 25.3554C20.7065 25.3774 20.5134 25.3961 20.3662 25.4094L20.1169 24.5057C20.4324 24.5038 20.9654 24.5014 21.3057 24.5021C21.2149 24.6663 21.1424 24.8356 21.0764 25.0066ZM37.2124 23.6264C37.4843 23.2046 38.0137 22.5501 38.6288 22.6665C39.244 22.7829 40.2454 23.2628 39.945 24.3826C39.7047 25.2785 38.8815 25.5994 38.5 25.6479C38.5859 26.1812 38.7319 27.3757 38.6288 27.8876C38.5546 28.2562 37.9156 29.4017 37.3843 30.354C36.9932 31.055 36.6606 31.6513 36.6545 31.7561C36.6454 31.9126 36.9345 32.2032 37.1624 32.4322C37.2945 32.565 37.406 32.6771 37.427 32.7305C37.4728 32.8468 37.4461 33.1183 37.427 33.2395C37.1314 33.0698 36.5 32.7305 36.3398 32.7305C36.2744 32.7305 36.2061 32.7707 36.1431 32.8078C36.0772 32.8466 36.0173 32.8818 35.9729 32.864C36.0961 33.1879 36.2615 33.4639 36.4828 33.7116C36.5389 33.7046 36.5957 33.6959 36.6524 33.6855C36.9107 33.6384 37.1466 33.5605 37.3067 33.4629L37.3516 33.4404C37.4611 33.4008 37.5875 33.4426 37.6505 33.5459C37.7221 33.6637 37.6842 33.8178 37.5665 33.8896L37.3809 33.9863C37.2604 34.0407 37.1291 34.0855 36.995 34.1211C37.1174 34.1794 37.2563 34.2261 37.402 34.2554C37.6855 34.3123 37.9584 34.2963 38.1549 34.2075C38.2807 34.1507 38.429 34.2069 38.486 34.3325C38.5428 34.4583 38.4868 34.6067 38.361 34.6636L38.2379 34.7114C37.9432 34.8094 37.6081 34.8068 37.3033 34.7456C36.9544 34.6755 36.6088 34.5209 36.3668 34.3022C36.3403 34.2783 36.3143 34.2541 36.2889 34.2297C36.1483 34.2362 36.013 34.2332 35.8907 34.2197C35.503 34.1771 35.1625 34.116 34.8067 33.8213C34.5042 33.5707 34.3461 33.2262 34.252 32.8887C34.1729 32.6047 34.1333 32.3017 34.0989 32.0392L34.0989 32.0391C34.0929 31.9932 34.087 31.9484 34.0811 31.9053C34.0467 31.6524 34.036 31.4003 34.0264 31.1611L34.0249 31.124C34.0158 30.8948 34.0071 30.6768 33.9805 30.4609C33.9594 30.289 33.9176 30.1215 33.8641 29.9515C33.5452 30.4146 32.8896 31.0472 32.4484 31.1162C31.8905 31.2035 29.3296 32.1779 29.3439 32.3233C29.3553 32.4396 31.4183 33.797 32.4484 34.4612L32.1192 34.9265C32.3434 35.1108 32.7716 35.4908 32.6915 35.5374C32.6516 35.5605 32.4983 35.7866 32.3201 36.0495L32.3201 36.0495C32.0508 36.4467 31.7246 36.9277 31.6471 36.919C31.6123 36.915 31.4666 36.9271 31.2739 36.9429C30.7541 36.9858 29.8924 37.0569 29.9446 36.919C29.9693 36.8538 30.0856 36.6834 30.2223 36.4831C30.4823 36.1022 30.8159 35.6136 30.7315 35.5374C30.6027 35.421 28.2565 34.1848 27.441 33.8358C26.6255 33.4868 26.2536 32.396 26.5111 31.7561C26.7172 31.2442 29.773 28.8668 31.2752 27.7421L32.9062 26.2442C32.6582 26.1569 32.2052 25.9155 32.3768 25.6479C32.5914 25.3134 35.1382 23.1319 35.8963 23.1465C36.5029 23.1581 37.0265 23.4713 37.2124 23.6264ZM35.4938 33.0103C35.5884 33.266 35.7062 33.4984 35.851 33.7126C35.5457 33.674 35.3446 33.6174 35.126 33.4365C34.9337 33.2772 34.8137 33.043 34.7335 32.7549C34.6657 32.5117 34.6319 32.2531 34.5979 31.9927C34.5911 31.9408 34.5843 31.8888 34.5772 31.8369C34.5465 31.611 34.5361 31.382 34.5264 31.1406L34.5254 31.1145C34.5171 30.9074 34.5084 30.6903 34.485 30.4721C34.5552 30.6235 34.6203 30.7792 34.6876 30.9401L34.6876 30.9401C34.7483 31.0853 34.8108 31.2347 34.8805 31.3892C35.0472 31.7586 35.1813 32.1367 35.3193 32.5254L35.3193 32.5254L35.3193 32.5255C35.376 32.6852 35.4333 32.8468 35.4938 33.0103ZM34.3028 29.2375C34.4272 29.3946 34.5363 29.5477 34.6246 29.6841C34.8514 30.0342 35.0138 30.4225 35.1667 30.788L35.1667 30.788L35.1667 30.7881L35.1669 30.7884C35.2238 30.9245 35.2794 31.0575 35.3366 31.1841C35.5121 31.5731 35.6568 31.9811 35.7973 32.377L35.7973 32.3771L35.7973 32.3772L35.7974 32.3774C35.8312 32.4727 35.8648 32.5673 35.8985 32.6608C35.8975 32.6462 35.8968 32.6307 35.8963 32.6142C35.882 32.1197 35.9106 31.0726 36.1681 30.4617C36.3741 29.9731 36.7022 29.0559 36.8404 28.6584C36.1394 28.7553 34.683 28.9871 34.4655 29.1383C34.3981 29.1852 34.3456 29.2142 34.3028 29.2375Z" fill="black"/>
</g>
<defs>
<filter id="filter0_d_2064_47849" x="0" y="0" width="56" height="56" filterUnits="userSpaceOnUse" color-interpolation-filters="sRGB">
<feFlood flood-opacity="0" result="BackgroundImageFix"/>
<feColorMatrix in="SourceAlpha" type="matrix" values="0 0 0 0 0 0 0 0 0 0 0 0 0 0 0 0 0 0 127 0" result="hardAlpha"/>
<feOffset dy="2"/>
<feGaussianBlur stdDeviation="4"/>
<feComposite in2="hardAlpha" operator="out"/>
<feColorMatrix type="matrix" values="0 0 0 0 0 0 0 0 0 0 0 0 0 0 0 0 0 0 0.2 0"/>
<feBlend mode="normal" in2="BackgroundImageFix" result="effect1_dropShadow_2064_47849"/>
<feBlend mode="normal" in="SourceGraphic" in2="effect1_dropShadow_2064_47849" result="shape"/>
</filter>
</defs>
</svg>
