<svg width="24" height="24" viewBox="0 0 24 24" fill="none" xmlns="http://www.w3.org/2000/svg">
<rect width="24" height="24" rx="12" fill="black"/>
<path d="M14.0799 7.47029C14.8802 6.6666 16.0511 6.64986 16.699 7.30062C17.3486 7.9525 17.3313 9.13125 16.5299 9.93493L15.1777 11.2928C15.1015 11.3719 15.0595 11.4777 15.0606 11.5874C15.0617 11.6972 15.1059 11.8021 15.1836 11.8796C15.2613 11.9571 15.3664 12.001 15.4761 12.0018C15.5859 12.0026 15.6915 11.9602 15.7704 11.8839L17.1232 10.526C18.1897 9.45495 18.3236 7.74544 17.2923 6.70958C16.2598 5.67316 14.5537 5.80822 13.4861 6.87925L10.7816 9.5956C9.71508 10.6666 9.58114 12.3761 10.6125 13.4114C10.651 13.4515 10.6971 13.4835 10.7481 13.5055C10.7991 13.5276 10.854 13.5393 10.9096 13.5399C10.9652 13.5405 11.0203 13.53 11.0718 13.5091C11.1233 13.4882 11.1701 13.4572 11.2095 13.418C11.2489 13.3788 11.2801 13.3321 11.3012 13.2807C11.3224 13.2294 11.3331 13.1743 11.3328 13.1187C11.3324 13.0631 11.321 13.0082 11.2992 12.957C11.2774 12.9059 11.2456 12.8597 11.2057 12.821C10.5561 12.1691 10.574 10.9903 11.3748 10.1866L14.0799 7.47029Z" fill="white"/>
<path d="M13.3866 10.588C13.3081 10.5093 13.2017 10.465 13.0906 10.4648C12.9795 10.4647 12.8728 10.5087 12.7942 10.5871C12.7155 10.6656 12.6712 10.7721 12.6711 10.8832C12.6709 10.9943 12.7149 11.1009 12.7933 11.1796C13.443 11.8314 13.4257 13.0096 12.6242 13.8139L9.91917 16.5297C9.11831 17.3334 7.94744 17.3501 7.29949 16.6993C6.64987 16.0475 6.66773 14.8687 7.46859 14.065L8.82141 12.7071C8.86021 12.6682 8.89097 12.622 8.91191 12.5711C8.93286 12.5203 8.94359 12.4658 8.94348 12.4108C8.94338 12.3558 8.93245 12.3014 8.91131 12.2506C8.89017 12.1999 8.85924 12.1538 8.82029 12.115C8.78134 12.0762 8.73512 12.0454 8.68428 12.0245C8.63344 12.0035 8.57898 11.9928 8.52399 11.9929C8.46901 11.993 8.41458 12.0039 8.36382 12.0251C8.31306 12.0462 8.26696 12.0771 8.22816 12.1161L6.87534 13.474C5.80883 14.5456 5.67489 16.2545 6.70624 17.2904C7.73871 18.3274 9.44479 18.1917 10.5124 17.1207L13.2175 14.4044C14.284 13.3339 14.4179 11.6233 13.3866 10.588Z" fill="white"/>
</svg>
