<svg width="24" height="24" viewBox="0 0 24 24" fill="none" xmlns="http://www.w3.org/2000/svg">
<rect width="24" height="24" rx="12" fill="black"/>
<path d="M18.1455 16.2691H16.6865C16.1345 16.2691 15.9685 15.8221 14.9785 14.8321C14.1145 13.9991 13.7495 13.8951 13.5305 13.8951C13.2285 13.8951 13.1455 13.9781 13.1455 14.3951V15.7071C13.1455 16.0621 13.0305 16.2701 12.1035 16.2701C11.2039 16.2096 10.3314 15.9363 9.55811 15.4726C8.78479 15.0089 8.13268 14.3681 7.65552 13.6031C6.52268 12.1931 5.73446 10.5382 5.35352 8.77006C5.35352 8.55106 5.43652 8.35306 5.85352 8.35306H7.31152C7.68652 8.35306 7.82152 8.52006 7.96852 8.90506C8.67652 10.9891 9.88452 12.8011 10.3745 12.8011C10.5625 12.8011 10.6445 12.7181 10.6445 12.2491V10.1031C10.5825 9.12406 10.0625 9.04106 10.0625 8.68706C10.0692 8.59369 10.112 8.50659 10.1818 8.44424C10.2516 8.38189 10.343 8.34918 10.4365 8.35306H12.7285C13.0415 8.35306 13.1455 8.50906 13.1455 8.88406V11.7801C13.1455 12.0931 13.2805 12.1971 13.3745 12.1971C13.5625 12.1971 13.7075 12.0931 14.0515 11.7491C14.7904 10.848 15.394 9.84414 15.8435 8.76906C15.8895 8.63992 15.9764 8.52936 16.091 8.45425C16.2057 8.37914 16.3418 8.3436 16.4785 8.35306H17.9375C18.3745 8.35306 18.4675 8.57206 18.3745 8.88406C17.844 10.0725 17.1876 11.2006 16.4165 12.2491C16.2595 12.4891 16.1965 12.6141 16.4165 12.8951C16.5615 13.1141 17.0725 13.5411 17.4165 13.9471C17.9164 14.4457 18.3315 15.0226 18.6455 15.6551C18.7705 16.0611 18.5615 16.2691 18.1455 16.2691Z" fill="white"/>
</svg>
