<svg width="24" height="24" viewBox="0 0 24 24" fill="none" xmlns="http://www.w3.org/2000/svg">
<rect width="24" height="24" rx="12" fill="black"/>
<path d="M16.6409 8.7993C16.4909 10.3793 15.8409 14.2193 15.5109 15.9893C15.3709 16.7393 15.0909 16.9893 14.8309 17.0193C14.2509 17.0693 13.8109 16.6393 13.2509 16.2693C12.3709 15.6893 11.8709 15.3293 11.0209 14.7693C10.0309 14.1193 10.6709 13.7593 11.2409 13.1793C11.3909 13.0293 13.9509 10.6993 14.0009 10.4893C14.0078 10.4575 14.0069 10.4245 13.9982 10.3931C13.9895 10.3617 13.9732 10.333 13.9509 10.3093C13.8909 10.2593 13.8109 10.2793 13.7409 10.2893C13.6509 10.3093 12.2509 11.2393 9.52088 13.0793C9.12088 13.3493 8.76088 13.4893 8.44088 13.4793C8.08088 13.4693 7.40088 13.2793 6.89088 13.1093C6.26088 12.9093 5.77088 12.7993 5.81088 12.4493C5.83088 12.2693 6.08088 12.0893 6.55088 11.8993C9.47088 10.6293 11.4109 9.7893 12.3809 9.3893C15.1609 8.2293 15.7309 8.0293 16.1109 8.0293C16.1909 8.0293 16.3809 8.0493 16.5009 8.1493C16.6009 8.2293 16.6309 8.3393 16.6409 8.4193C16.6309 8.4793 16.6509 8.6593 16.6409 8.7993Z" fill="white"/>
</svg>
