<svg width="24" height="24" viewBox="0 0 24 24" fill="none" xmlns="http://www.w3.org/2000/svg">
<g clip-path="url(#clip0_2095_30344)">
<rect width="24" height="24" rx="12" fill="#CACACA"/>
<path d="M17.222 8.39965C17.0559 10.1495 16.336 14.4023 15.9705 16.3626C15.8155 17.1932 15.5054 17.4701 15.2174 17.5033C14.5751 17.5587 14.0878 17.0825 13.4676 16.6727C12.493 16.0304 11.9392 15.6317 10.9978 15.0115C9.90142 14.2916 10.6102 13.8929 11.2415 13.2505C11.4076 13.0844 14.2428 10.5039 14.2982 10.2713C14.3059 10.2361 14.3049 10.1995 14.2952 10.1648C14.2856 10.1301 14.2676 10.0982 14.2428 10.072C14.1764 10.0166 14.0878 10.0388 14.0103 10.0498C13.9106 10.072 12.3601 11.102 9.33659 13.1398C8.89359 13.4388 8.49489 13.5938 8.14049 13.5828C7.74179 13.5717 6.98868 13.3613 6.42386 13.173C5.72613 12.9515 5.18345 12.8297 5.22775 12.442C5.2499 12.2427 5.52678 12.0433 6.0473 11.8329C9.28122 10.4264 11.4298 9.49608 12.5041 9.05308C15.5829 7.76838 16.2142 7.54688 16.635 7.54688C16.7236 7.54688 16.9341 7.56902 17.067 7.67978C17.1777 7.76838 17.2109 7.8902 17.222 7.9788C17.2109 8.04525 17.2331 8.2446 17.222 8.39965Z" fill="black"/>
</g>
<defs>
<clipPath id="clip0_2095_30344">
<rect width="24" height="24" fill="white"/>
</clipPath>
</defs>
</svg>
