<svg width="24" height="24" viewBox="0 0 24 24" fill="none" xmlns="http://www.w3.org/2000/svg">
<g clip-path="url(#clip0_2095_30347)">
<rect width="24" height="24" rx="12" fill="#CACACA"/>
<path d="M18.146 16.2691H16.687C16.135 16.2691 15.969 15.8221 14.979 14.8321C14.115 13.9991 13.75 13.8951 13.531 13.8951C13.229 13.8951 13.146 13.9781 13.146 14.3951V15.7071C13.146 16.0621 13.031 16.2701 12.104 16.2701C11.2043 16.2096 10.3319 15.9363 9.5586 15.4726C8.78528 15.0089 8.13317 14.3681 7.656 13.6031C6.52317 12.1931 5.73495 10.5382 5.354 8.77006C5.354 8.55106 5.437 8.35306 5.854 8.35306H7.312C7.687 8.35306 7.822 8.52006 7.969 8.90506C8.677 10.9891 9.885 12.8011 10.375 12.8011C10.563 12.8011 10.645 12.7181 10.645 12.2491V10.1031C10.583 9.12406 10.063 9.04106 10.063 8.68706C10.0697 8.59369 10.1125 8.50659 10.1823 8.44424C10.2521 8.38189 10.3435 8.34918 10.437 8.35306H12.729C13.042 8.35306 13.146 8.50906 13.146 8.88406V11.7801C13.146 12.0931 13.281 12.1971 13.375 12.1971C13.563 12.1971 13.708 12.0931 14.052 11.7491C14.7909 10.848 15.3945 9.84414 15.844 8.76906C15.8899 8.63992 15.9769 8.52936 16.0915 8.45425C16.2062 8.37914 16.3423 8.3436 16.479 8.35306H17.938C18.375 8.35306 18.468 8.57206 18.375 8.88406C17.8445 10.0725 17.1881 11.2006 16.417 12.2491C16.26 12.4891 16.197 12.6141 16.417 12.8951C16.562 13.1141 17.073 13.5411 17.417 13.9471C17.9169 14.4457 18.332 15.0226 18.646 15.6551C18.771 16.0611 18.562 16.2691 18.146 16.2691Z" fill="black"/>
</g>
<defs>
<clipPath id="clip0_2095_30347">
<rect width="24" height="24" fill="white"/>
</clipPath>
</defs>
</svg>
