<svg width="24" height="24" viewBox="0 0 24 24" fill="none" xmlns="http://www.w3.org/2000/svg">
<g clip-path="url(#clip0_2095_30350)">
<rect width="24" height="24" rx="12" fill="#CACACA"/>
<path d="M10.6 14.1429L14.233 12L10.6 9.85714V14.1429ZM18.692 8.55C18.783 8.88571 18.846 9.33571 18.888 9.90714C18.937 10.4786 18.958 10.9714 18.958 11.4L19 12C19 13.5643 18.888 14.7143 18.692 15.45C18.517 16.0929 18.111 16.5071 17.481 16.6857C17.152 16.7786 16.55 16.8429 15.626 16.8857C14.716 16.9357 13.883 16.9571 13.113 16.9571L12 17C9.067 17 7.24 16.8857 6.519 16.6857C5.889 16.5071 5.483 16.0929 5.308 15.45C5.217 15.1143 5.154 14.6643 5.112 14.0929C5.063 13.5214 5.042 13.0286 5.042 12.6L5 12C5 10.4357 5.112 9.28571 5.308 8.55C5.483 7.90714 5.889 7.49286 6.519 7.31429C6.848 7.22143 7.45 7.15714 8.374 7.11429C9.284 7.06429 10.117 7.04286 10.887 7.04286L12 7C14.933 7 16.76 7.11429 17.481 7.31429C18.111 7.49286 18.517 7.90714 18.692 8.55Z" fill="black"/>
</g>
<defs>
<clipPath id="clip0_2095_30350">
<rect width="24" height="24" fill="white"/>
</clipPath>
</defs>
</svg>
