<svg xmlns="http://www.w3.org/2000/svg" width="21" height="21" fill="none" viewBox="0 0 21 21"><path fill="#fff" d="m13.536 14.879 1.673-7.89q.102-.5-.12-.716-.222-.217-.586-.08l-9.836 3.79q-.33.127-.45.285-.118.16-.028.302.091.143.365.222l2.515.786L12.91 7.9q.24-.16.365-.068.08.057-.046.17l-4.724 4.27-.182 2.595q.261 0 .512-.25l1.23-1.184 2.55 1.878q.727.411.922-.432M20.4 10.2a10 10 0 0 1-.808 3.962q-.81 1.89-2.175 3.255-1.366 1.367-3.255 2.175a10 10 0 0 1-3.962.808 10 10 0 0 1-3.962-.808q-1.89-.81-3.255-2.175-1.366-1.366-2.175-3.255A10 10 0 0 1 0 10.2q0-2.072.808-3.962.81-1.89 2.175-3.255Q4.349 1.617 6.238.808A10 10 0 0 1 10.2 0a10 10 0 0 1 3.962.808q1.89.81 3.255 2.175 1.367 1.366 2.175 3.255A10 10 0 0 1 20.4 10.2"/></svg>